<svg width="394" height="431" viewBox="0 0 394 431" fill="none" xmlns="http://www.w3.org/2000/svg">
<path fill-rule="evenodd" clip-rule="evenodd" d="M388.354 1.8049V111.78C388.354 197.193 304.274 255.146 197.544 255.146C90.8133 255.146 5.72794 195.189 5.72794 109.776L5.64636 1.8049H388.354Z" fill="#209740"/>
<path fill-rule="evenodd" clip-rule="evenodd" d="M296.183 1.19937V67.444C296.183 107.587 249.467 147.867 194.711 147.867C139.955 147.867 97.3676 107.587 97.3676 67.444L97.3133 1.19937H296.183Z" fill="#C4000C"/>
<path d="M296.237 1.19937L296.183 67.444C296.183 107.587 249.467 147.867 194.711 147.867C139.955 147.867 97.3676 107.587 97.3676 67.444L97.3133 1.19937" stroke="black" stroke-width="1.6507" stroke-miterlimit="3.8637"/>
<path d="M123.768 106.745C123.985 106.447 124.257 106.202 124.881 105.632L124.854 105.605C123.931 105.822 122.573 105.931 121.323 104.545C119.775 102.807 120.047 100.906 121.839 99.3577C123.958 97.5108 126.294 98.38 128.439 100.77L129.227 101.639C129.987 100.96 131.21 100.118 130.178 99.059C129.553 98.4071 128.575 98.896 128.059 99.3577L125.723 96.7503C126.945 95.6367 128.113 95.5553 129.173 95.9355C130.259 96.3158 131.21 97.1849 131.943 97.9997C133.274 99.4935 134.143 101.965 132.187 103.676L127.76 107.642C127.407 107.968 127.081 108.375 126.131 109.38L123.768 106.745ZM124.148 103.894C125.234 105.089 126.647 104.002 127.787 102.97C127.271 102.373 126.81 101.802 126.239 101.612C125.642 101.422 125.044 101.368 124.42 101.911C123.822 102.481 123.686 103.35 124.148 103.894Z" stroke="white" stroke-width="1.25" stroke-miterlimit="3.8637" stroke-linecap="round" stroke-linejoin="round"/>
<path d="M134.469 105.116L136.234 102.97L142.97 108.511L141.205 110.656L133.355 112.042L137.538 115.491L135.773 117.637L128.711 111.824L130.476 109.679L138.271 108.266L134.469 105.116Z" stroke="white" stroke-width="1.25" stroke-miterlimit="3.8637" stroke-linecap="round" stroke-linejoin="round"/>
<path d="M157.501 123.422C155.6 127.252 152.395 127.74 149.625 126.355C146.854 124.997 145.333 122.118 147.234 118.289C149.136 114.459 152.341 113.97 155.111 115.355C157.881 116.74 159.402 119.592 157.501 123.422ZM150.765 124.074C152.178 124.78 153.346 123.177 154.079 121.684C154.812 120.19 155.383 118.316 153.97 117.61C152.558 116.903 151.39 118.506 150.657 120C149.95 121.466 149.38 123.395 150.765 124.074Z" stroke="white" stroke-width="1.25" stroke-miterlimit="3.8637" stroke-linecap="round" stroke-linejoin="round"/>
<path d="M165.731 123.884C165.867 123.503 165.921 123.15 165.812 122.879C165.704 122.58 165.459 122.336 164.97 122.173C164.454 122.01 164.02 122.254 163.802 122.879C163.531 123.694 164.97 124.128 166.926 125.676C167.904 126.464 168.393 127.523 167.795 129.316C166.817 132.222 164.264 132.195 162.118 131.489C159.837 130.728 157.773 129.424 158.913 126.084L162.254 127.197C162.091 127.496 162.064 127.903 162.173 128.257C162.281 128.61 162.499 128.936 162.852 129.044C163.531 129.262 164.155 129.126 164.373 128.447C165.025 126.491 159.104 125.812 160.434 121.82C161.331 119.103 164.047 119.185 165.894 119.81C168.121 120.543 169.941 121.901 169.072 124.997L165.731 123.884Z" stroke="white" stroke-width="1.25" stroke-miterlimit="3.8637" stroke-linecap="round" stroke-linejoin="round"/>
<path d="M171.435 124.78L171.978 122.064L180.506 123.802L179.963 126.518L173.689 131.407L178.985 132.494L178.442 135.21L169.479 133.39L170.022 130.674L176.215 125.758L171.435 124.78Z" stroke="white" stroke-width="1.25" stroke-miterlimit="3.8637" stroke-linecap="round" stroke-linejoin="round"/>
<path d="M183.738 124.128L183.901 122.39L187.758 121.086L187.432 124.481L189.578 124.671L189.333 127.442L187.188 127.252L186.753 131.842C186.726 132.141 186.427 133.634 187.296 133.689C187.785 133.743 188.301 133.77 188.736 133.743L188.491 136.35C187.649 136.459 187.025 136.459 186.482 136.405C183.956 136.16 182.489 135.617 183.005 132.086L183.467 126.899L181.565 126.708L181.81 123.938L183.738 124.128Z" stroke="white" stroke-width="1.25" stroke-miterlimit="3.8637" stroke-linecap="round" stroke-linejoin="round"/>
<path d="M202.506 130.402C202.588 134.667 200.007 136.595 196.911 136.649C193.842 136.704 191.153 134.911 191.044 130.62C190.963 126.355 193.57 124.427 196.64 124.346C199.709 124.318 202.398 126.138 202.506 130.402ZM196.857 134.123C198.432 134.096 198.704 132.113 198.677 130.484C198.649 128.854 198.269 126.899 196.694 126.926C195.119 126.953 194.847 128.936 194.874 130.565C194.901 132.195 195.282 134.151 196.857 134.123ZM197.346 122.988L195.037 123.042L196.993 119.647L201.067 119.565V119.62L197.346 122.988Z" stroke="white" stroke-width="1.25" stroke-miterlimit="3.8637" stroke-linecap="round" stroke-linejoin="round"/>
<path d="M216.603 125.731C216.521 125.35 216.385 125.025 216.168 124.834C215.924 124.617 215.57 124.536 215.082 124.644C214.538 124.753 214.294 125.187 214.457 125.839C214.647 126.681 216.114 126.301 218.585 126.627C219.835 126.79 220.812 127.442 221.22 129.289C221.899 132.276 219.672 133.58 217.472 134.069C215.109 134.612 212.691 134.558 211.931 131.108L215.38 130.321C215.408 130.674 215.57 131.027 215.842 131.271C216.114 131.516 216.467 131.679 216.82 131.597C217.526 131.434 217.961 131 217.825 130.294C217.363 128.284 211.958 130.755 211.035 126.681C210.41 123.884 212.773 122.553 214.674 122.118C216.956 121.602 219.21 121.82 220.079 124.916L216.603 125.731Z" stroke="white" stroke-width="1.25" stroke-miterlimit="3.8637" stroke-linecap="round" stroke-linejoin="round"/>
<path d="M221.953 123.558L221.057 120.95L229.314 118.126L230.21 120.706L227.277 128.121L232.41 126.355L233.306 128.963L224.642 131.95L223.746 129.343L226.598 121.955L221.953 123.558Z" stroke="white" stroke-width="1.25" stroke-miterlimit="3.8637" stroke-linecap="round" stroke-linejoin="round"/>
<path d="M241.971 125.052C241.753 124.753 241.59 124.427 241.21 123.667L241.183 123.694C241.129 124.644 240.83 125.975 239.173 126.79C237.054 127.795 235.343 127.007 234.338 124.834C233.143 122.281 234.637 120.299 237.543 118.886L238.603 118.37C238.168 117.447 237.706 116.034 236.375 116.741C235.588 117.175 235.778 118.234 236.077 118.859L232.899 120.38C232.166 118.913 232.41 117.745 233.089 116.822C233.768 115.871 234.854 115.192 235.859 114.731C237.652 113.862 240.259 113.699 241.373 116.089L243.953 121.466C244.171 121.901 244.442 122.336 245.175 123.504L241.971 125.052ZM235.18 113.536L233.089 114.541L233.469 110.629L237.163 108.864L237.19 108.891L235.18 113.536ZM239.309 123.884C240.748 123.178 240.124 121.521 239.445 120.136C238.738 120.489 238.032 120.76 237.706 121.249C237.353 121.765 237.136 122.336 237.489 123.069C237.869 123.802 238.684 124.183 239.309 123.884Z" stroke="white" stroke-width="1.25" stroke-miterlimit="3.8637" stroke-linecap="round" stroke-linejoin="round"/>
<path d="M246.153 111.797L246.18 111.77C245.827 110.059 246.533 108.837 247.756 107.995C248.733 107.316 250.282 107.126 251.422 108.049C251.178 106.528 251.83 105.116 252.998 104.219C254.736 102.997 256.963 103.432 258.43 105.523L262.884 111.879L259.815 114.024L255.904 108.457C255.225 107.56 254.329 106.691 253.378 107.343C251.857 108.402 253.432 110.222 253.514 110.331L257.343 115.763L254.274 117.908L250.363 112.34C249.684 111.444 248.788 110.575 247.837 111.227C246.316 112.286 247.892 114.106 247.973 114.215L251.803 119.647L248.733 121.792L243.79 114.731C243.193 113.889 242.785 113.318 241.971 112.368L244.985 110.249L246.153 111.797Z" stroke="white" stroke-width="1.25" stroke-miterlimit="3.8637" stroke-linecap="round" stroke-linejoin="round"/>
<path d="M270.272 104.437C269.946 104.247 269.702 103.975 269.104 103.405L269.077 103.432C269.348 104.328 269.539 105.686 268.262 107.017C266.632 108.701 264.731 108.538 263.047 106.827C261.064 104.844 261.771 102.454 264.025 100.145L264.84 99.3034C264.106 98.5972 263.183 97.4293 262.205 98.5429C261.608 99.2219 262.151 100.145 262.667 100.634L260.222 103.16C259.027 102.019 258.864 100.852 259.19 99.7651C259.516 98.6515 260.304 97.6466 261.064 96.8589C262.45 95.4194 264.867 94.3873 266.714 96.2342L270.978 100.39C271.331 100.743 271.739 101.014 272.825 101.884L270.272 104.437ZM267.366 104.247C268.479 103.106 267.311 101.748 266.198 100.661C265.655 101.232 265.084 101.721 264.948 102.291C264.785 102.916 264.785 103.513 265.383 104.084C265.981 104.681 266.877 104.763 267.366 104.247Z" stroke="white" stroke-width="1.25" stroke-miterlimit="3.8637" stroke-linecap="round" stroke-linejoin="round"/>
<path d="M123.768 106.745C123.985 106.447 124.257 106.202 124.881 105.632L124.854 105.605C123.931 105.822 122.573 105.931 121.323 104.545C119.775 102.807 120.047 100.906 121.839 99.3577C123.958 97.5108 126.294 98.38 128.439 100.77L129.227 101.639C129.987 100.96 131.21 100.118 130.178 99.059C129.553 98.4071 128.575 98.896 128.059 99.3577L125.723 96.7503C126.945 95.6367 128.113 95.5553 129.173 95.9355C130.259 96.3158 131.21 97.1849 131.943 97.9997C133.274 99.4935 134.143 101.965 132.187 103.676L127.76 107.642C127.407 107.968 127.081 108.375 126.131 109.38L123.768 106.745ZM124.148 103.894C125.234 105.089 126.647 104.002 127.787 102.97C127.271 102.373 126.81 101.802 126.239 101.612C125.642 101.422 125.044 101.368 124.42 101.911C123.822 102.481 123.686 103.35 124.148 103.894Z" stroke="black" stroke-width="2.5" stroke-miterlimit="3.8637" stroke-linecap="round" stroke-linejoin="round"/>
<path d="M134.469 105.116L136.234 102.97L142.97 108.511L141.205 110.656L133.355 112.042L137.538 115.491L135.773 117.637L128.711 111.824L130.476 109.679L138.271 108.266L134.469 105.116Z" stroke="black" stroke-width="2.5" stroke-miterlimit="3.8637" stroke-linecap="round" stroke-linejoin="round"/>
<path d="M157.501 123.422C155.6 127.252 152.395 127.74 149.625 126.355C146.854 124.997 145.333 122.118 147.234 118.289C149.136 114.459 152.341 113.97 155.111 115.355C157.881 116.74 159.402 119.592 157.501 123.422ZM150.765 124.074C152.178 124.78 153.346 123.177 154.079 121.684C154.812 120.19 155.383 118.316 153.97 117.61C152.558 116.903 151.39 118.506 150.657 120C149.95 121.466 149.38 123.395 150.765 124.074Z" stroke="black" stroke-width="2.5" stroke-miterlimit="3.8637" stroke-linecap="round" stroke-linejoin="round"/>
<path d="M165.731 123.884C165.867 123.503 165.921 123.15 165.812 122.879C165.704 122.58 165.459 122.336 164.97 122.173C164.454 122.01 164.02 122.254 163.802 122.879C163.531 123.694 164.97 124.128 166.926 125.676C167.904 126.464 168.393 127.523 167.795 129.316C166.817 132.222 164.264 132.195 162.118 131.489C159.837 130.728 157.773 129.424 158.913 126.084L162.254 127.197C162.091 127.496 162.064 127.903 162.173 128.257C162.281 128.61 162.499 128.936 162.852 129.044C163.531 129.262 164.155 129.126 164.373 128.447C165.025 126.491 159.104 125.812 160.434 121.82C161.331 119.103 164.047 119.185 165.894 119.81C168.121 120.543 169.941 121.901 169.072 124.997L165.731 123.884Z" stroke="black" stroke-width="2.5" stroke-miterlimit="3.8637" stroke-linecap="round" stroke-linejoin="round"/>
<path d="M171.435 124.78L171.978 122.064L180.506 123.802L179.963 126.518L173.689 131.407L178.985 132.494L178.442 135.21L169.479 133.39L170.022 130.674L176.215 125.758L171.435 124.78Z" stroke="black" stroke-width="2.5" stroke-miterlimit="3.8637" stroke-linecap="round" stroke-linejoin="round"/>
<path d="M183.738 124.128L183.901 122.39L187.758 121.086L187.432 124.481L189.578 124.671L189.333 127.442L187.188 127.252L186.753 131.842C186.726 132.141 186.427 133.634 187.296 133.689C187.785 133.743 188.301 133.77 188.736 133.743L188.491 136.35C187.649 136.459 187.025 136.459 186.482 136.405C183.956 136.16 182.489 135.617 183.005 132.086L183.467 126.899L181.565 126.708L181.81 123.938L183.738 124.128Z" stroke="black" stroke-width="2.5" stroke-miterlimit="3.8637" stroke-linecap="round" stroke-linejoin="round"/>
<path d="M202.506 130.402C202.588 134.667 200.007 136.595 196.911 136.649C193.842 136.704 191.153 134.911 191.044 130.62C190.963 126.355 193.57 124.427 196.64 124.346C199.709 124.318 202.398 126.138 202.506 130.402ZM196.857 134.123C198.432 134.096 198.704 132.113 198.677 130.484C198.649 128.854 198.269 126.899 196.694 126.926C195.119 126.953 194.847 128.936 194.874 130.565C194.901 132.195 195.282 134.151 196.857 134.123ZM197.346 122.988L195.037 123.042L196.993 119.647L201.067 119.565V119.62L197.346 122.988Z" stroke="black" stroke-width="2.5" stroke-miterlimit="3.8637" stroke-linecap="round" stroke-linejoin="round"/>
<path d="M216.603 125.731C216.521 125.35 216.385 125.025 216.168 124.834C215.924 124.617 215.57 124.536 215.082 124.644C214.538 124.753 214.294 125.187 214.457 125.839C214.647 126.681 216.114 126.301 218.585 126.627C219.835 126.79 220.812 127.442 221.22 129.289C221.899 132.276 219.672 133.58 217.472 134.069C215.109 134.612 212.691 134.558 211.931 131.108L215.38 130.321C215.408 130.674 215.57 131.027 215.842 131.271C216.114 131.516 216.467 131.679 216.82 131.597C217.526 131.434 217.961 131 217.825 130.294C217.363 128.284 211.958 130.755 211.035 126.681C210.41 123.884 212.773 122.553 214.674 122.118C216.956 121.602 219.21 121.82 220.079 124.916L216.603 125.731Z" stroke="black" stroke-width="2.5" stroke-miterlimit="3.8637" stroke-linecap="round" stroke-linejoin="round"/>
<path d="M221.953 123.558L221.057 120.95L229.314 118.126L230.21 120.706L227.277 128.121L232.41 126.355L233.306 128.963L224.642 131.95L223.746 129.343L226.598 121.955L221.953 123.558Z" stroke="black" stroke-width="2.5" stroke-miterlimit="3.8637" stroke-linecap="round" stroke-linejoin="round"/>
<path d="M241.971 125.052C241.753 124.753 241.59 124.427 241.21 123.667L241.183 123.694C241.129 124.644 240.83 125.975 239.173 126.79C237.054 127.795 235.343 127.007 234.338 124.834C233.143 122.281 234.637 120.299 237.543 118.886L238.603 118.37C238.168 117.447 237.706 116.034 236.375 116.741C235.588 117.175 235.778 118.234 236.077 118.859L232.899 120.38C232.166 118.913 232.41 117.745 233.089 116.822C233.768 115.871 234.854 115.192 235.859 114.731C237.652 113.862 240.259 113.699 241.373 116.089L243.953 121.466C244.171 121.901 244.442 122.336 245.175 123.504L241.971 125.052ZM235.18 113.536L233.089 114.541L233.469 110.629L237.163 108.864L237.19 108.891L235.18 113.536ZM239.309 123.884C240.748 123.178 240.124 121.521 239.445 120.136C238.738 120.489 238.032 120.76 237.706 121.249C237.353 121.765 237.136 122.336 237.489 123.069C237.869 123.802 238.684 124.183 239.309 123.884Z" stroke="black" stroke-width="2.5" stroke-miterlimit="3.8637" stroke-linecap="round" stroke-linejoin="round"/>
<path d="M246.153 111.797L246.18 111.77C245.827 110.059 246.533 108.837 247.756 107.995C248.733 107.316 250.282 107.126 251.422 108.049C251.178 106.528 251.83 105.116 252.998 104.219C254.736 102.997 256.963 103.432 258.43 105.523L262.884 111.879L259.815 114.024L255.904 108.457C255.225 107.56 254.329 106.691 253.378 107.343C251.857 108.402 253.432 110.222 253.514 110.331L257.343 115.763L254.274 117.908L250.363 112.34C249.684 111.444 248.788 110.575 247.837 111.227C246.316 112.286 247.892 114.106 247.973 114.215L251.803 119.647L248.733 121.792L243.79 114.731C243.193 113.889 242.785 113.318 241.971 112.368L244.985 110.249L246.153 111.797Z" stroke="black" stroke-width="2.5" stroke-miterlimit="3.8637" stroke-linecap="round" stroke-linejoin="round"/>
<path d="M270.272 104.437C269.946 104.247 269.702 103.975 269.104 103.405L269.077 103.432C269.348 104.328 269.539 105.686 268.262 107.017C266.632 108.701 264.731 108.538 263.047 106.827C261.064 104.844 261.771 102.454 264.025 100.145L264.84 99.3034C264.106 98.5972 263.183 97.4293 262.205 98.5429C261.608 99.2219 262.151 100.145 262.667 100.634L260.222 103.16C259.027 102.019 258.864 100.852 259.19 99.7651C259.516 98.6515 260.304 97.6466 261.064 96.8589C262.45 95.4194 264.867 94.3873 266.714 96.2342L270.978 100.39C271.331 100.743 271.739 101.014 272.825 101.884L270.272 104.437ZM267.366 104.247C268.479 103.106 267.311 101.748 266.198 100.661C265.655 101.232 265.084 101.721 264.948 102.291C264.785 102.916 264.785 103.513 265.383 104.084C265.981 104.681 266.877 104.763 267.366 104.247Z" stroke="black" stroke-width="2.5" stroke-miterlimit="3.8637" stroke-linecap="round" stroke-linejoin="round"/>
<path d="M123.768 106.745C123.985 106.447 124.257 106.202 124.881 105.632L124.854 105.605C123.931 105.822 122.573 105.931 121.323 104.545C119.775 102.807 120.047 100.906 121.839 99.3577C123.958 97.5108 126.294 98.38 128.439 100.77L129.227 101.639C129.987 100.96 131.21 100.118 130.178 99.059C129.553 98.4071 128.575 98.896 128.059 99.3577L125.723 96.7503C126.945 95.6367 128.113 95.5553 129.173 95.9355C130.259 96.3158 131.21 97.1849 131.943 97.9997C133.274 99.4935 134.143 101.965 132.187 103.676L127.76 107.642C127.407 107.968 127.081 108.375 126.131 109.38L123.768 106.745ZM124.148 103.894C125.234 105.089 126.647 104.002 127.787 102.97C127.271 102.373 126.81 101.802 126.239 101.612C125.642 101.422 125.044 101.368 124.42 101.911C123.822 102.481 123.686 103.35 124.148 103.894Z" fill="white"/>
<path d="M134.469 105.116L136.234 102.97L142.97 108.511L141.205 110.656L133.355 112.042L137.538 115.491L135.773 117.637L128.711 111.824L130.476 109.679L138.271 108.266L134.469 105.116Z" fill="white"/>
<path d="M157.501 123.422C155.6 127.252 152.395 127.74 149.625 126.355C146.854 124.997 145.333 122.118 147.234 118.289C149.136 114.459 152.341 113.97 155.111 115.355C157.881 116.74 159.402 119.592 157.501 123.422ZM150.765 124.074C152.178 124.78 153.346 123.177 154.079 121.684C154.812 120.19 155.383 118.316 153.97 117.61C152.558 116.903 151.39 118.506 150.657 120C149.95 121.466 149.38 123.395 150.765 124.074Z" fill="white"/>
<path d="M165.731 123.884C165.867 123.503 165.921 123.15 165.812 122.879C165.704 122.58 165.459 122.336 164.97 122.173C164.454 122.01 164.02 122.254 163.802 122.879C163.531 123.694 164.97 124.128 166.926 125.676C167.904 126.464 168.393 127.523 167.795 129.316C166.817 132.222 164.264 132.195 162.118 131.489C159.837 130.728 157.773 129.424 158.913 126.084L162.254 127.197C162.091 127.496 162.064 127.903 162.173 128.257C162.281 128.61 162.499 128.936 162.852 129.044C163.531 129.262 164.155 129.126 164.373 128.447C165.025 126.491 159.104 125.812 160.434 121.82C161.331 119.103 164.047 119.185 165.894 119.81C168.121 120.543 169.941 121.901 169.072 124.997L165.731 123.884Z" fill="white"/>
<path d="M171.435 124.78L171.978 122.064L180.506 123.802L179.963 126.518L173.689 131.407L178.985 132.494L178.442 135.21L169.479 133.39L170.022 130.674L176.215 125.758L171.435 124.78Z" fill="white"/>
<path d="M183.738 124.128L183.901 122.39L187.758 121.086L187.432 124.481L189.578 124.671L189.333 127.442L187.188 127.252L186.753 131.842C186.726 132.141 186.427 133.634 187.296 133.689C187.785 133.743 188.301 133.77 188.736 133.743L188.491 136.35C187.649 136.459 187.025 136.459 186.482 136.405C183.956 136.16 182.489 135.617 183.005 132.086L183.467 126.899L181.565 126.708L181.81 123.938L183.738 124.128Z" fill="white"/>
<path d="M202.506 130.402C202.588 134.667 200.007 136.595 196.911 136.649C193.842 136.704 191.153 134.911 191.044 130.62C190.963 126.355 193.57 124.427 196.64 124.346C199.709 124.318 202.398 126.138 202.506 130.402ZM196.857 134.123C198.432 134.096 198.704 132.113 198.677 130.484C198.649 128.854 198.269 126.899 196.694 126.926C195.119 126.953 194.847 128.936 194.874 130.565C194.901 132.195 195.282 134.151 196.857 134.123ZM197.346 122.988L195.037 123.042L196.993 119.647L201.067 119.565V119.62L197.346 122.988Z" fill="white"/>
<path d="M216.603 125.731C216.521 125.35 216.385 125.025 216.168 124.834C215.924 124.617 215.57 124.536 215.082 124.644C214.538 124.753 214.294 125.187 214.457 125.839C214.647 126.681 216.114 126.301 218.585 126.627C219.835 126.79 220.812 127.442 221.22 129.289C221.899 132.276 219.672 133.58 217.472 134.069C215.109 134.612 212.691 134.558 211.931 131.108L215.38 130.321C215.408 130.674 215.57 131.027 215.842 131.271C216.114 131.516 216.467 131.679 216.82 131.597C217.526 131.434 217.961 131 217.825 130.294C217.363 128.284 211.958 130.755 211.035 126.681C210.41 123.884 212.773 122.553 214.674 122.118C216.956 121.602 219.21 121.82 220.079 124.916L216.603 125.731Z" fill="white"/>
<path d="M221.953 123.558L221.057 120.95L229.314 118.126L230.21 120.706L227.277 128.121L232.41 126.355L233.306 128.963L224.642 131.95L223.746 129.343L226.598 121.955L221.953 123.558Z" fill="white"/>
<path d="M241.971 125.052C241.753 124.753 241.59 124.427 241.21 123.667L241.183 123.694C241.129 124.644 240.83 125.975 239.173 126.79C237.054 127.795 235.343 127.007 234.338 124.834C233.143 122.281 234.637 120.299 237.543 118.886L238.603 118.37C238.168 117.447 237.706 116.034 236.375 116.741C235.588 117.175 235.778 118.234 236.077 118.859L232.899 120.38C232.166 118.913 232.41 117.745 233.089 116.822C233.768 115.871 234.854 115.192 235.859 114.731C237.652 113.862 240.259 113.699 241.373 116.089L243.953 121.466C244.171 121.901 244.442 122.336 245.175 123.504L241.971 125.052ZM235.18 113.536L233.089 114.541L233.469 110.629L237.163 108.864L237.19 108.891L235.18 113.536ZM239.309 123.884C240.748 123.178 240.124 121.521 239.445 120.136C238.738 120.489 238.032 120.76 237.706 121.249C237.353 121.765 237.136 122.336 237.489 123.069C237.869 123.802 238.684 124.183 239.309 123.884Z" fill="white"/>
<path d="M246.153 111.797L246.18 111.77C245.827 110.059 246.533 108.837 247.756 107.995C248.733 107.316 250.282 107.126 251.422 108.049C251.178 106.528 251.83 105.116 252.998 104.219C254.736 102.997 256.963 103.432 258.43 105.523L262.884 111.879L259.815 114.024L255.904 108.457C255.225 107.56 254.329 106.691 253.378 107.343C251.857 108.402 253.432 110.222 253.514 110.331L257.343 115.763L254.274 117.908L250.363 112.34C249.684 111.444 248.788 110.575 247.837 111.227C246.316 112.286 247.892 114.106 247.973 114.215L251.803 119.647L248.733 121.792L243.79 114.731C243.193 113.889 242.785 113.318 241.971 112.368L244.985 110.249L246.153 111.797Z" fill="white"/>
<path d="M270.272 104.437C269.946 104.247 269.702 103.975 269.104 103.405L269.077 103.432C269.348 104.328 269.539 105.686 268.262 107.017C266.632 108.701 264.731 108.538 263.047 106.827C261.064 104.844 261.771 102.454 264.025 100.145L264.84 99.3034C264.106 98.5972 263.183 97.4293 262.205 98.5429C261.608 99.2219 262.151 100.145 262.667 100.634L260.222 103.16C259.027 102.019 258.864 100.852 259.19 99.7651C259.516 98.6515 260.304 97.6466 261.064 96.8589C262.45 95.4194 264.867 94.3873 266.714 96.2342L270.978 100.39C271.331 100.743 271.739 101.014 272.825 101.884L270.272 104.437ZM267.366 104.247C268.479 103.106 267.311 101.748 266.198 100.661C265.655 101.232 265.084 101.721 264.948 102.291C264.785 102.916 264.785 103.513 265.383 104.084C265.981 104.681 266.877 104.763 267.366 104.247Z" fill="white"/>
<path d="M300.339 198.439C302.294 198.439 304.929 198.385 304.929 201.536C304.929 203.519 303.516 204.822 301.697 204.822C299.361 204.822 298.302 202.975 298.193 200.694H294.363C294.282 205.501 297.297 208.299 301.751 208.299C305.635 208.299 309.139 205.827 309.139 201.427C309.139 199.091 307.808 197.19 305.608 196.674V196.62C307.455 196.077 308.378 194.311 308.378 192.356C308.378 188.607 304.874 186.57 301.697 186.57C297.595 186.57 294.961 189.531 294.825 193.795H298.655C298.628 191.649 299.714 190.047 301.724 190.047C303.19 190.047 304.549 191.052 304.549 192.817C304.549 195.207 302.05 195.56 300.311 195.425V198.439H300.339Z" stroke="black" stroke-width="1.25" stroke-miterlimit="3.8637" stroke-linejoin="round"/>
<path d="M300.339 198.439C302.294 198.439 304.929 198.385 304.929 201.536C304.929 203.519 303.516 204.822 301.697 204.822C299.361 204.822 298.302 202.975 298.193 200.694H294.363C294.282 205.501 297.297 208.299 301.751 208.299C305.635 208.299 309.139 205.827 309.139 201.427C309.139 199.091 307.808 197.19 305.608 196.674V196.62C307.455 196.077 308.378 194.311 308.378 192.356C308.378 188.607 304.874 186.57 301.697 186.57C297.595 186.57 294.961 189.531 294.825 193.795H298.655C298.628 191.649 299.714 190.047 301.724 190.047C303.19 190.047 304.549 191.052 304.549 192.817C304.549 195.207 302.05 195.56 300.311 195.425V198.439H300.339Z" stroke="black" stroke-width="2.5" stroke-miterlimit="3.8637" stroke-linejoin="round"/>
<path fill-rule="evenodd" clip-rule="evenodd" d="M300.339 198.439C302.294 198.439 304.929 198.385 304.929 201.536C304.929 203.519 303.516 204.822 301.697 204.822C299.361 204.822 298.302 202.975 298.193 200.694H294.363C294.282 205.501 297.297 208.299 301.751 208.299C305.635 208.299 309.139 205.827 309.139 201.427C309.139 199.091 307.808 197.19 305.608 196.674V196.62C307.455 196.077 308.378 194.311 308.378 192.356C308.378 188.607 304.874 186.57 301.697 186.57C297.595 186.57 294.961 189.531 294.825 193.795H298.655C298.628 191.649 299.714 190.047 301.724 190.047C303.19 190.047 304.549 191.052 304.549 192.817C304.549 195.207 302.05 195.56 300.311 195.425V198.439H300.339Z" fill="white"/>
<path d="M346.756 105.007H350.586V100.173H353.22V96.6688H350.586V84.0935H346.973L338.336 96.2614V100.145H346.729V105.007H346.756ZM346.756 96.6417H341.541L346.675 89.3898H346.756V96.6417Z" stroke="black" stroke-width="1.25" stroke-miterlimit="3.8637" stroke-linejoin="round"/>
<path d="M346.756 105.007H350.586V100.173H353.22V96.6688H350.586V84.0935H346.973L338.336 96.2614V100.145H346.729V105.007H346.756ZM346.756 96.6417H341.541L346.675 89.3898H346.756V96.6417Z" stroke="black" stroke-width="2.5" stroke-miterlimit="3.8637" stroke-linejoin="round"/>
<path fill-rule="evenodd" clip-rule="evenodd" d="M346.756 105.007H350.586V100.173H353.22V96.6688H350.586V84.0935H346.973L338.336 96.2614V100.145H346.729V105.007H346.756ZM346.756 96.6417H341.541L346.675 89.3898H346.756V96.6417Z" fill="white"/>
<path d="M54.5898 85.0984H51.3848C50.9502 88.3034 48.37 89.3083 45.5724 89.254V92.4589H50.57V106.039H54.5898V85.0984Z" stroke="black" stroke-width="1.25" stroke-miterlimit="3.8637" stroke-linejoin="round"/>
<path d="M54.5898 85.0984H51.3848C50.9502 88.3034 48.37 89.3083 45.5724 89.254V92.4589H50.57V106.039H54.5898V85.0984Z" stroke="black" stroke-width="2.5" stroke-miterlimit="3.8637" stroke-linejoin="round"/>
<path fill-rule="evenodd" clip-rule="evenodd" d="M54.5898 85.0984H51.3848C50.9502 88.3034 48.37 89.3083 45.5724 89.254V92.4589H50.57V106.039H54.5898V85.0984Z" fill="white"/>
<path d="M93.5379 194.012C93.5379 191.812 94.2984 189.205 96.6885 189.205C98.4268 189.205 99.6762 190.454 99.6762 192.437C99.649 195.017 97.2589 196.294 95.4935 197.543C92.0712 199.988 89.2465 202.052 89.2194 206.887H103.805V203.247H94.407C95.8465 201.101 98.1824 199.906 100.138 198.44C102.093 196.973 103.696 195.235 103.696 192.111C103.696 188.01 100.518 185.565 96.8786 185.565C92.0984 185.565 89.5181 189.232 89.6539 194.012H93.5379Z" stroke="black" stroke-width="1.25" stroke-miterlimit="3.8637" stroke-linejoin="round"/>
<path d="M93.5379 194.012C93.5379 191.812 94.2984 189.205 96.6885 189.205C98.4268 189.205 99.6762 190.454 99.6762 192.437C99.649 195.017 97.2589 196.294 95.4935 197.543C92.0712 199.988 89.2465 202.052 89.2194 206.887H103.805V203.247H94.407C95.8465 201.101 98.1824 199.906 100.138 198.44C102.093 196.973 103.696 195.235 103.696 192.111C103.696 188.01 100.518 185.565 96.8786 185.565C92.0984 185.565 89.5181 189.232 89.6539 194.012H93.5379Z" stroke="black" stroke-width="2.5" stroke-miterlimit="3.8637" stroke-linejoin="round"/>
<path fill-rule="evenodd" clip-rule="evenodd" d="M93.5379 194.012C93.5379 191.812 94.2984 189.205 96.6885 189.205C98.4268 189.205 99.6762 190.454 99.6762 192.437C99.649 195.017 97.2589 196.294 95.4935 197.543C92.0712 199.988 89.2465 202.052 89.2194 206.887H103.805V203.247H94.407C95.8465 201.101 98.1824 199.906 100.138 198.44C102.093 196.973 103.696 195.235 103.696 192.111C103.696 188.01 100.518 185.565 96.8786 185.565C92.0984 185.565 89.5181 189.232 89.6539 194.012H93.5379Z" fill="white"/>
<path d="M236.267 176.086C237.245 178.911 239.716 179.156 241.971 178.477C244.171 177.797 246.099 176.222 245.23 173.397C244.632 171.415 242.921 171.252 241.237 171.333C239.608 171.415 238.059 171.714 237.733 170.654C237.462 169.785 238.304 169.378 238.901 169.215C239.852 168.916 240.721 168.997 241.156 170.111L243.682 169.351C242.677 166.77 240.477 166.58 238.358 167.232C236.294 167.857 234.366 169.215 235.208 171.958C235.778 173.859 237.516 173.995 239.146 173.886C241.183 173.751 242.405 173.723 242.65 174.62C242.975 175.652 242.106 176.277 241.319 176.521C240.259 176.847 239.146 176.63 238.738 175.326L236.267 176.086ZM225.593 176.032C225.267 174.267 225.538 172.393 227.385 172.067C229.259 171.741 230.129 173.425 230.427 175.19C230.726 176.956 230.482 178.802 228.635 179.156C226.761 179.481 225.891 177.798 225.593 176.032ZM222.85 176.521C223.474 180.025 225.891 181.98 229.015 181.437C232.166 180.894 233.768 178.205 233.143 174.701C232.519 171.17 230.101 169.215 226.951 169.785C223.854 170.328 222.225 172.99 222.85 176.521ZM211.279 183.284L214.049 183.039L213.724 179.183L214.701 177.933L217.906 182.686L221.247 182.388L216.412 175.679L219.862 171.252L216.603 171.523L213.479 175.842L212.746 167.558L209.975 167.802L211.279 183.284ZM200.143 176.738C200.17 175.869 200.686 174.348 202.452 174.348C203.81 174.348 204.407 175.163 204.652 176.738H200.143ZM207.422 178.694C207.612 175.244 205.956 172.012 202.506 172.012C199.437 172.012 197.346 174.565 197.346 177.933C197.346 181.41 199.328 183.827 202.506 183.827C204.788 183.827 206.445 182.686 207.232 180.052H204.788C204.625 180.758 203.701 181.518 202.588 181.518C201.04 181.518 200.198 180.622 200.116 178.667L207.422 178.694ZM205.874 167.857H202.832L200.931 170.953H202.859L205.874 167.857ZM193.326 168.862L190.556 168.726L190.393 172.094L188.709 172.012L188.6 174.077L190.284 174.158L189.931 180.785C189.822 183.012 191.289 183.528 192.973 183.61C193.516 183.637 194.114 183.637 194.602 183.583L194.738 181.165C194.44 181.22 194.168 181.22 193.869 181.22C192.946 181.165 192.701 180.894 192.756 179.862L193.054 174.267L195.091 174.375L195.173 172.311L193.136 172.202L193.326 168.862ZM179.393 174.565C179.61 173.37 180.343 172.963 181.402 173.072C182.38 173.18 183.168 173.452 183.032 174.783C182.896 176.032 181.321 175.815 179.61 175.896C177.872 175.978 176.106 176.412 175.835 178.938C175.59 181.22 177.002 182.442 178.904 182.659C180.126 182.795 181.457 182.551 182.435 181.627C182.407 182.007 182.462 182.36 182.516 182.741L185.314 183.039C185.096 182.551 185.123 181.546 185.232 180.514L185.83 174.701C186.101 172.012 183.765 171.279 181.756 171.062C179.501 170.817 177.111 171.442 176.649 174.294L179.393 174.565ZM182.652 178.368C182.57 179.047 182.299 180.921 180.153 180.704C179.257 180.622 178.496 180.242 178.605 179.101C178.714 177.988 179.528 177.743 180.397 177.635C181.267 177.553 182.244 177.635 182.76 177.227L182.652 178.368ZM185.558 167.232L182.516 166.906L180.316 169.785L182.244 170.002L185.558 167.232ZM174.314 166.037L171.57 165.548L171.136 168.047L173.879 168.536L174.314 166.037ZM166.573 184.343C166.844 184.425 167.143 184.533 167.442 184.588C170.185 185.077 171.136 184.126 171.543 181.872L173.58 170.247L170.837 169.758L168.827 181.22C168.691 182.062 168.148 182.116 167.605 182.007C167.388 181.98 167.197 181.899 167.034 181.817L166.573 184.343ZM151.471 168.074C151.96 166.96 152.775 166.716 153.753 167.069C154.676 167.395 155.383 167.83 154.948 169.079C154.541 170.274 153.047 169.704 151.363 169.405C149.652 169.079 147.832 169.106 146.99 171.496C146.229 173.669 147.343 175.163 149.136 175.788C150.304 176.195 151.634 176.249 152.802 175.57C152.694 175.923 152.667 176.304 152.639 176.657L155.301 177.58C155.22 177.064 155.437 176.059 155.79 175.109L157.691 169.595C158.56 167.042 156.442 165.793 154.541 165.141C152.395 164.407 149.923 164.462 148.837 167.151L151.471 168.074ZM153.807 172.501C153.59 173.126 152.884 174.918 150.847 174.212C150.005 173.914 149.326 173.397 149.706 172.311C150.086 171.252 150.928 171.197 151.797 171.279C152.667 171.388 153.59 171.686 154.188 171.415L153.807 172.501ZM232.817 186.57L230.129 187.277L230.78 189.721L233.469 189.015L232.817 186.57ZM234.148 202.269L236.837 201.563L233.931 190.726L231.242 191.432L234.148 202.269ZM220.785 197.217C220.677 195.995 221.274 195.425 222.306 195.235C223.257 195.072 224.126 195.126 224.343 196.43C224.561 197.679 222.985 197.869 221.356 198.467C219.699 199.037 218.124 199.933 218.558 202.432C218.966 204.686 220.649 205.474 222.524 205.148C223.746 204.904 224.941 204.306 225.647 203.165C225.729 203.519 225.864 203.872 226.027 204.198L228.798 203.709C228.472 203.301 228.2 202.324 228.01 201.319L227.005 195.561C226.543 192.899 224.072 192.844 222.089 193.198C219.862 193.578 217.716 194.854 218.069 197.733L220.785 197.217ZM224.968 199.961C225.077 200.612 225.348 202.514 223.203 202.894C222.306 203.057 221.491 202.921 221.274 201.78C221.084 200.667 221.79 200.205 222.605 199.879C223.42 199.553 224.37 199.363 224.751 198.847L224.968 199.961ZM198.324 207.457L201.094 207.267L200.632 200.775C200.469 198.575 201.773 198.114 202.316 198.059C204.082 197.951 204.109 199.444 204.19 200.748L204.625 207.022L207.395 206.832L206.961 200.585C206.852 199.173 207.042 197.733 208.617 197.625C210.193 197.516 210.41 198.738 210.519 200.232L210.953 206.588L213.724 206.398L213.207 198.901C212.99 195.995 211.388 194.99 209.242 195.153C207.83 195.262 206.852 196.212 206.336 197.217C205.684 195.914 204.516 195.479 203.267 195.561C201.963 195.642 200.958 196.402 200.306 197.598L200.17 196.077L197.563 196.267L198.324 207.457ZM186.807 198.847C187.025 197.652 187.758 197.244 188.817 197.353C189.795 197.462 190.583 197.733 190.447 199.064C190.311 200.314 188.736 200.096 187.025 200.205C185.286 200.286 183.521 200.721 183.249 203.247C183.005 205.528 184.417 206.751 186.319 206.968C187.541 207.104 188.872 206.859 189.849 205.936C189.822 206.316 189.877 206.669 189.931 207.049L192.728 207.348C192.511 206.859 192.538 205.854 192.647 204.822L193.244 199.01C193.516 196.321 191.18 195.588 189.17 195.37C186.916 195.126 184.499 195.751 184.064 198.603L186.807 198.847ZM190.067 202.649C189.985 203.328 189.714 205.203 187.568 204.985C186.672 204.904 185.911 204.524 186.02 203.383C186.128 202.269 186.943 202.025 187.812 201.916C188.681 201.835 189.659 201.916 190.175 201.509L190.067 202.649ZM192.973 191.541L189.931 191.215L187.758 194.094L189.686 194.311L192.973 191.541ZM168.691 204.007L177.844 205.61L178.252 203.328L172.711 202.351L179.039 196.783L179.447 194.501L171.054 193.035L170.647 195.316L175.454 196.158L169.126 201.726L168.691 204.007ZM155.654 196.919C155.002 199.825 156.958 201.346 159.212 201.97C161.439 202.568 163.911 202.242 164.672 199.39C165.215 197.38 163.857 196.348 162.39 195.533C160.978 194.719 159.484 194.175 159.783 193.116C160.027 192.247 160.951 192.356 161.548 192.519C162.499 192.763 163.232 193.306 162.988 194.474L165.541 195.153C166.057 192.437 164.291 191.106 162.173 190.536C160.081 189.965 157.746 190.101 156.985 192.872C156.469 194.773 157.854 195.805 159.294 196.593C161.086 197.57 162.118 198.195 161.874 199.091C161.602 200.151 160.516 200.205 159.755 200.015C158.696 199.743 157.854 198.956 158.18 197.625L155.654 196.919Z" stroke="black" stroke-width="1.25" stroke-miterlimit="3.8637" stroke-linejoin="round"/>
<path d="M236.267 176.086C237.245 178.911 239.716 179.156 241.971 178.477C244.171 177.797 246.099 176.222 245.23 173.397C244.632 171.415 242.921 171.252 241.237 171.333C239.608 171.415 238.059 171.714 237.733 170.654C237.462 169.785 238.304 169.378 238.901 169.215C239.852 168.916 240.721 168.997 241.156 170.111L243.682 169.351C242.677 166.77 240.477 166.58 238.358 167.232C236.294 167.857 234.366 169.215 235.208 171.958C235.778 173.859 237.516 173.995 239.146 173.886C241.183 173.751 242.405 173.723 242.65 174.62C242.975 175.652 242.106 176.277 241.319 176.521C240.259 176.847 239.146 176.63 238.738 175.326L236.267 176.086ZM225.593 176.032C225.267 174.267 225.538 172.393 227.385 172.067C229.259 171.741 230.129 173.425 230.427 175.19C230.726 176.956 230.482 178.802 228.635 179.156C226.761 179.481 225.891 177.798 225.593 176.032ZM222.85 176.521C223.474 180.025 225.891 181.98 229.015 181.437C232.166 180.894 233.768 178.205 233.143 174.701C232.519 171.17 230.101 169.215 226.951 169.785C223.854 170.328 222.225 172.99 222.85 176.521ZM211.279 183.284L214.049 183.039L213.724 179.183L214.701 177.933L217.906 182.686L221.247 182.388L216.412 175.679L219.862 171.252L216.603 171.523L213.479 175.842L212.746 167.558L209.975 167.802L211.279 183.284ZM200.143 176.738C200.17 175.869 200.686 174.348 202.452 174.348C203.81 174.348 204.407 175.163 204.652 176.738H200.143ZM207.422 178.694C207.612 175.244 205.956 172.012 202.506 172.012C199.437 172.012 197.346 174.565 197.346 177.933C197.346 181.41 199.328 183.827 202.506 183.827C204.788 183.827 206.445 182.686 207.232 180.052H204.788C204.625 180.758 203.701 181.518 202.588 181.518C201.04 181.518 200.198 180.622 200.116 178.667L207.422 178.694ZM205.874 167.857H202.832L200.931 170.953H202.859L205.874 167.857ZM193.326 168.862L190.556 168.726L190.393 172.094L188.709 172.012L188.6 174.077L190.284 174.158L189.931 180.785C189.822 183.012 191.289 183.528 192.973 183.61C193.516 183.637 194.114 183.637 194.602 183.583L194.738 181.165C194.44 181.22 194.168 181.22 193.869 181.22C192.946 181.165 192.701 180.894 192.756 179.862L193.054 174.267L195.091 174.375L195.173 172.311L193.136 172.202L193.326 168.862ZM179.393 174.565C179.61 173.37 180.343 172.963 181.402 173.072C182.38 173.18 183.168 173.452 183.032 174.783C182.896 176.032 181.321 175.815 179.61 175.896C177.872 175.978 176.106 176.412 175.835 178.938C175.59 181.22 177.002 182.442 178.904 182.659C180.126 182.795 181.457 182.551 182.435 181.627C182.407 182.007 182.462 182.36 182.516 182.741L185.314 183.039C185.096 182.551 185.123 181.546 185.232 180.514L185.83 174.701C186.101 172.012 183.765 171.279 181.756 171.062C179.501 170.817 177.111 171.442 176.649 174.294L179.393 174.565ZM182.652 178.368C182.57 179.047 182.299 180.921 180.153 180.704C179.257 180.622 178.496 180.242 178.605 179.101C178.714 177.988 179.528 177.743 180.397 177.635C181.267 177.553 182.244 177.635 182.76 177.227L182.652 178.368ZM185.558 167.232L182.516 166.906L180.316 169.785L182.244 170.002L185.558 167.232ZM174.314 166.037L171.57 165.548L171.136 168.047L173.879 168.536L174.314 166.037ZM166.573 184.343C166.844 184.425 167.143 184.533 167.442 184.588C170.185 185.077 171.136 184.126 171.543 181.872L173.58 170.247L170.837 169.758L168.827 181.22C168.691 182.062 168.148 182.116 167.605 182.007C167.388 181.98 167.197 181.899 167.034 181.817L166.573 184.343ZM151.471 168.074C151.96 166.96 152.775 166.716 153.753 167.069C154.676 167.395 155.383 167.83 154.948 169.079C154.541 170.274 153.047 169.704 151.363 169.405C149.652 169.079 147.832 169.106 146.99 171.496C146.229 173.669 147.343 175.163 149.136 175.788C150.304 176.195 151.634 176.249 152.802 175.57C152.694 175.923 152.667 176.304 152.639 176.657L155.301 177.58C155.22 177.064 155.437 176.059 155.79 175.109L157.691 169.595C158.56 167.042 156.442 165.793 154.541 165.141C152.395 164.407 149.923 164.462 148.837 167.151L151.471 168.074ZM153.807 172.501C153.59 173.126 152.884 174.918 150.847 174.212C150.005 173.914 149.326 173.397 149.706 172.311C150.086 171.252 150.928 171.197 151.797 171.279C152.667 171.388 153.59 171.686 154.188 171.415L153.807 172.501ZM232.817 186.57L230.129 187.277L230.78 189.721L233.469 189.015L232.817 186.57ZM234.148 202.269L236.837 201.563L233.931 190.726L231.242 191.432L234.148 202.269ZM220.785 197.217C220.677 195.995 221.274 195.425 222.306 195.235C223.257 195.072 224.126 195.126 224.343 196.43C224.561 197.679 222.985 197.869 221.356 198.467C219.699 199.037 218.124 199.933 218.558 202.432C218.966 204.686 220.649 205.474 222.524 205.148C223.746 204.904 224.941 204.306 225.647 203.165C225.729 203.519 225.864 203.872 226.027 204.198L228.798 203.709C228.472 203.301 228.2 202.324 228.01 201.319L227.005 195.561C226.543 192.899 224.072 192.844 222.089 193.198C219.862 193.578 217.716 194.854 218.069 197.733L220.785 197.217ZM224.968 199.961C225.077 200.612 225.348 202.514 223.203 202.894C222.306 203.057 221.491 202.921 221.274 201.78C221.084 200.667 221.79 200.205 222.605 199.879C223.42 199.553 224.37 199.363 224.751 198.847L224.968 199.961ZM198.324 207.457L201.094 207.267L200.632 200.775C200.469 198.575 201.773 198.114 202.316 198.059C204.082 197.951 204.109 199.444 204.19 200.748L204.625 207.022L207.395 206.832L206.961 200.585C206.852 199.173 207.042 197.733 208.617 197.625C210.193 197.516 210.41 198.738 210.519 200.232L210.953 206.588L213.724 206.398L213.207 198.901C212.99 195.995 211.388 194.99 209.242 195.153C207.83 195.262 206.852 196.212 206.336 197.217C205.684 195.914 204.516 195.479 203.267 195.561C201.963 195.642 200.958 196.402 200.306 197.598L200.17 196.077L197.563 196.267L198.324 207.457ZM186.807 198.847C187.025 197.652 187.758 197.244 188.817 197.353C189.795 197.462 190.583 197.733 190.447 199.064C190.311 200.314 188.736 200.096 187.025 200.205C185.286 200.286 183.521 200.721 183.249 203.247C183.005 205.528 184.417 206.751 186.319 206.968C187.541 207.104 188.872 206.859 189.849 205.936C189.822 206.316 189.877 206.669 189.931 207.049L192.728 207.348C192.511 206.859 192.538 205.854 192.647 204.822L193.244 199.01C193.516 196.321 191.18 195.588 189.17 195.37C186.916 195.126 184.499 195.751 184.064 198.603L186.807 198.847ZM190.067 202.649C189.985 203.328 189.714 205.203 187.568 204.985C186.672 204.904 185.911 204.524 186.02 203.383C186.128 202.269 186.943 202.025 187.812 201.916C188.681 201.835 189.659 201.916 190.175 201.509L190.067 202.649ZM192.973 191.541L189.931 191.215L187.758 194.094L189.686 194.311L192.973 191.541ZM168.691 204.007L177.844 205.61L178.252 203.328L172.711 202.351L179.039 196.783L179.447 194.501L171.054 193.035L170.647 195.316L175.454 196.158L169.126 201.726L168.691 204.007ZM155.654 196.919C155.002 199.825 156.958 201.346 159.212 201.97C161.439 202.568 163.911 202.242 164.672 199.39C165.215 197.38 163.857 196.348 162.39 195.533C160.978 194.719 159.484 194.175 159.783 193.116C160.027 192.247 160.951 192.356 161.548 192.519C162.499 192.763 163.232 193.306 162.988 194.474L165.541 195.153C166.057 192.437 164.291 191.106 162.173 190.536C160.081 189.965 157.746 190.101 156.985 192.872C156.469 194.773 157.854 195.805 159.294 196.593C161.086 197.57 162.118 198.195 161.874 199.091C161.602 200.151 160.516 200.205 159.755 200.015C158.696 199.743 157.854 198.956 158.18 197.625L155.654 196.919Z" stroke="black" stroke-width="2.5" stroke-miterlimit="3.8637" stroke-linejoin="round"/>
<path fill-rule="evenodd" clip-rule="evenodd" d="M236.267 176.086C237.245 178.911 239.716 179.156 241.971 178.477C244.171 177.797 246.099 176.222 245.23 173.397C244.632 171.415 242.921 171.252 241.237 171.333C239.608 171.415 238.059 171.714 237.733 170.654C237.462 169.785 238.304 169.378 238.901 169.215C239.852 168.916 240.721 168.997 241.156 170.111L243.682 169.351C242.677 166.77 240.477 166.58 238.358 167.232C236.294 167.857 234.366 169.215 235.208 171.958C235.778 173.859 237.516 173.995 239.146 173.886C241.183 173.751 242.405 173.723 242.65 174.62C242.975 175.652 242.106 176.277 241.319 176.521C240.259 176.847 239.146 176.63 238.738 175.326L236.267 176.086ZM225.593 176.032C225.267 174.267 225.538 172.393 227.385 172.067C229.259 171.741 230.129 173.425 230.427 175.19C230.726 176.956 230.482 178.802 228.635 179.156C226.761 179.481 225.891 177.798 225.593 176.032ZM222.85 176.521C223.474 180.025 225.891 181.98 229.015 181.437C232.166 180.894 233.768 178.205 233.143 174.701C232.519 171.17 230.101 169.215 226.951 169.785C223.854 170.328 222.225 172.99 222.85 176.521ZM211.279 183.284L214.049 183.039L213.724 179.183L214.701 177.933L217.906 182.686L221.247 182.388L216.412 175.679L219.862 171.252L216.603 171.523L213.479 175.842L212.746 167.558L209.975 167.802L211.279 183.284ZM200.143 176.738C200.17 175.869 200.686 174.348 202.452 174.348C203.81 174.348 204.407 175.163 204.652 176.738H200.143ZM207.422 178.694C207.612 175.244 205.956 172.012 202.506 172.012C199.437 172.012 197.346 174.565 197.346 177.933C197.346 181.41 199.328 183.827 202.506 183.827C204.788 183.827 206.445 182.686 207.232 180.052H204.788C204.625 180.758 203.701 181.518 202.588 181.518C201.04 181.518 200.198 180.622 200.116 178.667L207.422 178.694ZM205.874 167.857H202.832L200.931 170.953H202.859L205.874 167.857ZM193.326 168.862L190.556 168.726L190.393 172.094L188.709 172.012L188.6 174.077L190.284 174.158L189.931 180.785C189.822 183.012 191.289 183.528 192.973 183.61C193.516 183.637 194.114 183.637 194.602 183.583L194.738 181.165C194.44 181.22 194.168 181.22 193.869 181.22C192.946 181.165 192.701 180.894 192.756 179.862L193.054 174.267L195.091 174.375L195.173 172.311L193.136 172.202L193.326 168.862ZM179.393 174.565C179.61 173.37 180.343 172.963 181.402 173.072C182.38 173.18 183.168 173.452 183.032 174.783C182.896 176.032 181.321 175.815 179.61 175.896C177.872 175.978 176.106 176.412 175.835 178.938C175.59 181.22 177.002 182.442 178.904 182.659C180.126 182.795 181.457 182.551 182.435 181.627C182.407 182.007 182.462 182.36 182.516 182.741L185.314 183.039C185.096 182.551 185.123 181.546 185.232 180.514L185.83 174.701C186.101 172.012 183.765 171.279 181.756 171.062C179.501 170.817 177.111 171.442 176.649 174.294L179.393 174.565ZM182.652 178.368C182.57 179.047 182.299 180.921 180.153 180.704C179.257 180.622 178.496 180.242 178.605 179.101C178.714 177.988 179.528 177.743 180.397 177.635C181.267 177.553 182.244 177.635 182.76 177.227L182.652 178.368ZM185.558 167.232L182.516 166.906L180.316 169.785L182.244 170.002L185.558 167.232ZM174.314 166.037L171.57 165.548L171.136 168.047L173.879 168.536L174.314 166.037ZM166.573 184.343C166.844 184.425 167.143 184.533 167.442 184.588C170.185 185.077 171.136 184.126 171.543 181.872L173.58 170.247L170.837 169.758L168.827 181.22C168.691 182.062 168.148 182.116 167.605 182.007C167.388 181.98 167.197 181.899 167.034 181.817L166.573 184.343ZM151.471 168.074C151.96 166.96 152.775 166.716 153.753 167.069C154.676 167.395 155.383 167.83 154.948 169.079C154.541 170.274 153.047 169.704 151.363 169.405C149.652 169.079 147.832 169.106 146.99 171.496C146.229 173.669 147.343 175.163 149.136 175.788C150.304 176.195 151.634 176.249 152.802 175.57C152.694 175.923 152.667 176.304 152.639 176.657L155.301 177.58C155.22 177.064 155.437 176.059 155.79 175.109L157.691 169.595C158.56 167.042 156.442 165.793 154.541 165.141C152.395 164.407 149.923 164.462 148.837 167.151L151.471 168.074ZM153.807 172.501C153.59 173.126 152.884 174.918 150.847 174.212C150.005 173.914 149.326 173.397 149.706 172.311C150.086 171.252 150.928 171.197 151.797 171.279C152.667 171.388 153.59 171.686 154.188 171.415L153.807 172.501ZM232.817 186.57L230.129 187.277L230.78 189.721L233.469 189.015L232.817 186.57ZM234.148 202.269L236.837 201.563L233.931 190.726L231.242 191.432L234.148 202.269ZM220.785 197.217C220.677 195.995 221.274 195.425 222.306 195.235C223.257 195.072 224.126 195.126 224.343 196.43C224.561 197.679 222.985 197.869 221.356 198.467C219.699 199.037 218.124 199.933 218.558 202.432C218.966 204.686 220.649 205.474 222.524 205.148C223.746 204.904 224.941 204.306 225.647 203.165C225.729 203.519 225.864 203.872 226.027 204.198L228.798 203.709C228.472 203.301 228.2 202.324 228.01 201.319L227.005 195.561C226.543 192.899 224.072 192.844 222.089 193.198C219.862 193.578 217.716 194.854 218.069 197.733L220.785 197.217ZM224.968 199.961C225.077 200.612 225.348 202.514 223.203 202.894C222.306 203.057 221.491 202.921 221.274 201.78C221.084 200.667 221.79 200.205 222.605 199.879C223.42 199.553 224.37 199.363 224.751 198.847L224.968 199.961ZM198.324 207.457L201.094 207.267L200.632 200.775C200.469 198.575 201.773 198.114 202.316 198.059C204.082 197.951 204.109 199.444 204.19 200.748L204.625 207.022L207.395 206.832L206.961 200.585C206.852 199.173 207.042 197.733 208.617 197.625C210.193 197.516 210.41 198.738 210.519 200.232L210.953 206.588L213.724 206.398L213.207 198.901C212.99 195.995 211.388 194.99 209.242 195.153C207.83 195.262 206.852 196.212 206.336 197.217C205.684 195.914 204.516 195.479 203.267 195.561C201.963 195.642 200.958 196.402 200.306 197.598L200.17 196.077L197.563 196.267L198.324 207.457ZM186.807 198.847C187.025 197.652 187.758 197.244 188.817 197.353C189.795 197.462 190.583 197.733 190.447 199.064C190.311 200.314 188.736 200.096 187.025 200.205C185.286 200.286 183.521 200.721 183.249 203.247C183.005 205.528 184.417 206.751 186.319 206.968C187.541 207.104 188.872 206.859 189.849 205.936C189.822 206.316 189.877 206.669 189.931 207.049L192.728 207.348C192.511 206.859 192.538 205.854 192.647 204.822L193.244 199.01C193.516 196.321 191.18 195.588 189.17 195.37C186.916 195.126 184.499 195.751 184.064 198.603L186.807 198.847ZM190.067 202.649C189.985 203.328 189.714 205.203 187.568 204.985C186.672 204.904 185.911 204.524 186.02 203.383C186.128 202.269 186.943 202.025 187.812 201.916C188.681 201.835 189.659 201.916 190.175 201.509L190.067 202.649ZM192.973 191.541L189.931 191.215L187.758 194.094L189.686 194.311L192.973 191.541ZM168.691 204.007L177.844 205.61L178.252 203.328L172.711 202.351L179.039 196.783L179.447 194.501L171.054 193.035L170.647 195.316L175.454 196.158L169.126 201.726L168.691 204.007ZM155.654 196.919C155.002 199.825 156.958 201.346 159.212 201.97C161.439 202.568 163.911 202.242 164.672 199.39C165.215 197.38 163.857 196.348 162.39 195.533C160.978 194.719 159.484 194.175 159.783 193.116C160.027 192.247 160.951 192.356 161.548 192.519C162.499 192.763 163.232 193.306 162.988 194.474L165.541 195.153C166.057 192.437 164.291 191.106 162.173 190.536C160.081 189.965 157.746 190.101 156.985 192.872C156.469 194.773 157.854 195.805 159.294 196.593C161.086 197.57 162.118 198.195 161.874 199.091C161.602 200.151 160.516 200.205 159.755 200.015C158.696 199.743 157.854 198.956 158.18 197.625L155.654 196.919Z" fill="white"/>
<path d="M265.641 384.825L270.972 430.329H276.438L300.197 392.74L323.983 430.329H329.422L334.78 384.825L379.673 412.84L362.489 362.604L393.744 365.976V346.638L377.86 330.509L393.744 324.824V300.536L377.86 294.851L393.744 278.722V259.383L362.489 262.756L379.673 212.519L334.78 240.535L328.556 187.768L300.197 232.592L271.838 187.768L265.641 240.535L220.721 212.519L237.905 262.756L185.354 257.099L222.535 294.851L172.744 312.666L222.535 330.509L185.354 368.261L237.905 362.604L220.721 412.84L265.641 384.825Z" fill="#C4000C"/>
<path d="M373.536 290.134C373.455 267.536 340.509 249.23 299.877 249.23C259.19 249.23 226.19 267.59 226.19 290.215C226.19 291.193 226.353 292.171 226.462 293.148L226.19 304.882C226.19 305.778 226.353 306.647 226.434 307.516L226.19 318.163C226.19 319.06 226.353 319.929 226.434 320.798L226.19 331.445C226.19 354.097 259.19 374.521 299.877 374.521C340.563 374.521 373.563 354.097 373.563 331.445V318.163V316.697V304.882V303.415L373.536 290.134Z" fill="black" stroke="black" stroke-width="3.2056"/>
<path d="M226.163 331.499C226.163 354.151 259.163 374.576 299.85 374.576C340.536 374.576 373.536 354.151 373.536 331.499V316.724H226.489L226.163 331.499Z" fill="black" stroke="black" stroke-width="0.5463"/>
<path d="M299.85 361.756C340.536 361.756 373.536 339.485 373.536 316.833C373.536 294.181 340.536 275.82 299.85 275.82C259.163 275.82 226.163 294.181 226.163 316.833C226.163 339.485 259.163 361.756 299.85 361.756Z" fill="black" stroke="black" stroke-width="0.5463"/>
<path d="M299.85 316.724L328.884 279.433C319.976 277.314 310.171 276.119 299.85 276.119C289.529 276.119 279.724 277.314 270.815 279.433L299.85 316.724Z" fill="#FFEC00" stroke="black" stroke-width="0.5463"/>
<path d="M299.85 316.724L232.817 300.563C228.988 305.534 226.869 310.993 226.869 316.724C226.869 322.455 228.988 327.914 232.817 332.884L299.85 316.724Z" fill="#FFEC00" stroke="black" stroke-width="0.5463"/>
<path d="M299.85 316.724L270.815 357.954C279.724 360.072 289.529 361.24 299.85 361.24C310.144 361.24 319.976 360.045 328.884 357.954L299.85 316.724Z" fill="#FFEC00" stroke="black" stroke-width="0.5463"/>
<path d="M299.85 316.724L366.882 332.884C370.712 327.914 372.83 322.455 372.83 316.724C372.83 310.993 370.712 305.534 366.882 300.563L299.85 316.724Z" fill="#FFEC00" stroke="black" stroke-width="0.5463"/>
<path d="M299.85 342.798C326.223 342.798 347.625 330.902 347.625 316.208C347.625 301.514 326.223 289.618 299.85 289.618C273.477 289.618 252.074 301.514 252.074 316.208C252.074 330.902 273.477 342.798 299.85 342.798Z" fill="black" stroke="black" stroke-width="0.3542"/>
<path d="M299.85 344.373C326.223 344.373 347.625 332.477 347.625 317.783C347.625 303.116 326.223 291.193 299.85 291.193C273.477 291.193 252.074 303.116 252.074 317.783C252.074 332.477 273.477 344.373 299.85 344.373Z" fill="#D8D9DB" stroke="black" stroke-width="1.4383"/>
<path d="M231.514 333.754C231.514 333.754 248.815 353.581 270.815 357.954L270.571 356.677V369.687C261.092 368.438 239.879 361.023 230.4 344.292L231.514 333.754Z" fill="#FFEC00" stroke="black" stroke-width="0.5463"/>
<path d="M367.48 333.754C367.48 333.754 350.205 353.581 328.178 357.954L328.45 356.677V369.687C337.929 368.438 359.114 361.023 368.62 344.292L367.48 333.754Z" fill="#FFEC00" stroke="black" stroke-width="0.5463"/>
<path d="M226.163 318.218C226.163 340.87 259.163 361.267 299.85 361.267C340.536 361.267 373.536 340.87 373.536 318.218V303.443H226.489L226.163 318.218Z" fill="black" stroke="black" stroke-width="0.5463"/>
<path d="M299.85 348.448C340.536 348.448 373.536 326.176 373.536 303.524C373.536 280.872 340.536 262.512 299.85 262.512C259.163 262.512 226.163 280.872 226.163 303.524C226.163 326.176 259.163 348.448 299.85 348.448Z" fill="black" stroke="black" stroke-width="0.5463"/>
<path d="M299.85 303.443L328.884 266.124C319.976 264.005 310.171 262.81 299.85 262.81C289.529 262.81 279.724 264.005 270.815 266.124L299.85 303.443Z" fill="#FFEC00" stroke="black" stroke-width="0.5463"/>
<path d="M299.85 303.442L232.817 287.282C228.988 292.252 226.869 297.712 226.869 303.442C226.869 309.173 228.988 314.633 232.817 319.603L299.85 303.442Z" fill="#FFEC00" stroke="black" stroke-width="0.5463"/>
<path d="M299.85 303.442L270.815 344.645C279.724 346.791 289.529 347.959 299.85 347.959C310.144 347.959 319.976 346.791 328.884 344.645L299.85 303.442Z" fill="#FFEC00" stroke="black" stroke-width="0.5463"/>
<path d="M299.85 303.442L366.882 319.603C370.712 314.633 372.83 309.173 372.83 303.442C372.83 297.712 370.712 292.225 366.882 287.282L299.85 303.442Z" fill="#FFEC00" stroke="black" stroke-width="0.5463"/>
<path d="M299.85 329.49C326.223 329.49 347.625 317.593 347.625 302.899C347.625 288.233 326.223 276.309 299.85 276.309C273.477 276.309 252.074 288.206 252.074 302.899C252.074 317.593 273.477 329.49 299.85 329.49Z" fill="black" stroke="black" stroke-width="0.3542"/>
<path d="M299.85 331.092C326.223 331.092 347.625 319.196 347.625 304.502C347.625 289.808 326.223 277.911 299.85 277.911C273.477 277.911 252.074 289.808 252.074 304.502C252.074 319.196 273.477 331.092 299.85 331.092Z" fill="#D8D9DB" stroke="black" stroke-width="1.4383"/>
<path d="M231.514 320.472C231.514 320.472 248.815 340.299 270.815 344.672L270.571 343.396V356.405C261.092 355.156 239.879 347.741 230.4 331.01L231.514 320.472Z" fill="#FFEC00" stroke="black" stroke-width="0.5463"/>
<path d="M367.48 320.472C367.48 320.472 350.205 340.299 328.178 344.672L328.45 343.396V356.405C337.929 355.156 359.114 347.741 368.62 331.01L367.48 320.472Z" fill="#FFEC00" stroke="black" stroke-width="0.5463"/>
<path d="M226.163 304.909C226.163 327.534 259.163 347.959 299.85 347.959C340.536 347.959 373.536 327.534 373.536 304.909V290.134H226.489L226.163 304.909Z" fill="black" stroke="black" stroke-width="0.5463"/>
<path d="M299.85 335.166C340.536 335.166 373.536 312.894 373.536 290.242C373.536 267.59 340.536 249.257 299.85 249.257C259.163 249.257 226.163 267.617 226.163 290.242C226.163 312.867 259.163 335.166 299.85 335.166Z" fill="black" stroke="black" stroke-width="0.5463"/>
<path d="M299.85 335.166C340.536 335.166 373.536 312.894 373.536 290.242C373.536 267.59 340.536 249.257 299.85 249.257C259.163 249.257 226.163 267.617 226.163 290.242C226.163 312.867 259.163 335.166 299.85 335.166Z" fill="black" stroke="black" stroke-width="0.5463"/>
<path d="M299.85 290.134L328.884 252.842C319.976 250.724 310.171 249.529 299.85 249.529C289.529 249.529 279.724 250.697 270.815 252.842L299.85 290.134Z" fill="#FFEC00" stroke="black" stroke-width="0.5463"/>
<path d="M299.85 290.134L232.817 273.973C228.988 278.944 226.869 284.403 226.869 290.134C226.869 295.865 228.988 301.324 232.817 306.294L299.85 290.134Z" fill="#FFEC00" stroke="black" stroke-width="0.5463"/>
<path d="M299.85 290.134L270.815 331.363C279.724 333.482 289.529 334.677 299.85 334.677C310.144 334.677 319.976 333.482 328.884 331.363L299.85 290.134Z" fill="#FFEC00" stroke="black" stroke-width="0.5463"/>
<path d="M299.85 290.134L366.882 306.294C370.712 301.324 372.83 295.865 372.83 290.134C372.83 284.403 370.712 278.944 366.882 273.973L299.85 290.134Z" fill="#FFEC00" stroke="black" stroke-width="0.5463"/>
<path d="M299.85 316.181C326.223 316.181 347.625 304.284 347.625 289.591C347.625 274.924 326.223 263 299.85 263C273.477 263 252.074 274.897 252.074 289.591C252.074 304.284 273.477 316.181 299.85 316.181Z" fill="black" stroke="black" stroke-width="0.3542"/>
<path d="M299.85 317.81C326.223 317.81 347.625 305.887 347.625 291.22C347.625 276.553 326.223 264.63 299.85 264.63C273.477 264.63 252.074 276.553 252.074 291.22C252.074 305.887 273.477 317.81 299.85 317.81Z" fill="white" stroke="black" stroke-width="1.4383"/>
<path d="M231.514 307.163C231.514 307.163 248.815 326.991 270.815 331.364L270.571 330.087V343.097C261.092 341.847 239.879 334.433 230.4 317.702L231.514 307.163Z" fill="#FFEC00" stroke="black" stroke-width="0.5463"/>
<path d="M367.48 307.163C367.48 307.163 350.205 326.991 328.178 331.364L328.45 330.087V343.097C337.929 341.847 359.114 334.433 368.62 317.702L367.48 307.163Z" fill="#FFEC00" stroke="black" stroke-width="0.5463"/>
<path d="M273.368 343.477C273.368 343.477 296.102 353.146 326.359 344.211" stroke="#96969A" stroke-width="0.779"/>
<path d="M273.368 357.248C273.368 357.248 296.102 366.917 326.359 357.981" stroke="#96969A" stroke-width="0.779"/>
<path d="M317.015 291.22L338.771 286.358L314.326 288.314L331.166 279.106L309.736 285.978L317.151 274L303.435 284.674L300.013 272.235L296.563 284.674L282.766 274.19L290.289 285.978L269.077 279.215L285.699 288.314L260.711 286.25L283.01 291.22L260.711 296.19L285.699 294.099L269.077 303.198L290.289 296.462L282.766 308.223L296.563 297.766L300.013 310.178L303.435 297.766L317.151 308.44L309.736 296.462L331.166 303.307L314.326 294.099L338.771 296.082L317.015 291.22Z" fill="#C4000C"/>
<path fill-rule="evenodd" clip-rule="evenodd" d="M50.8958 19.8316C50.1625 17.4686 47.6637 16.1106 45.2736 16.8439L18.4933 25.0464C16.1303 25.7797 14.7723 28.2785 15.5056 30.6686L28.081 71.7898C28.8143 74.1527 31.3131 75.5108 33.7032 74.7774L60.4835 66.5749C62.8737 65.8416 64.2045 63.3428 63.4712 60.9527L50.8958 19.8316Z" fill="white" stroke="black" stroke-width="1.5" stroke-miterlimit="3.8637"/>
<path fill-rule="evenodd" clip-rule="evenodd" d="M35.686 34.3354L31.5576 48.6762L43.4267 56.2812L47.7181 42.0762L35.686 34.3354Z" fill="#C4000C"/>
<path fill-rule="evenodd" clip-rule="evenodd" d="M47.8267 26.2143C47.8267 23.7155 49.8366 21.7057 52.3354 21.7057H80.3379C82.8096 21.7057 84.8466 23.7155 84.8466 26.2143V69.2367C84.8466 71.7355 82.8367 73.7453 80.3379 73.7453H52.3354C49.8638 73.7453 47.8267 71.7355 47.8267 69.2367V26.2143Z" fill="white" stroke="black" stroke-width="1.5" stroke-miterlimit="3.8637"/>
<path fill-rule="evenodd" clip-rule="evenodd" d="M65.0465 45.2811L65.1551 47.6169H62.8193L62.4391 52.0441L64.9107 51.9354L65.0465 55.3848L63.3082 57.8293H68.1156L66.8663 55.4935L67.0021 52.1799H70.4515L71.2934 47.6169H67.2465L67.491 45.4169L65.0465 45.2811Z" fill="black" stroke="black" stroke-width="0.25" stroke-miterlimit="3.8637"/>
<path fill-rule="evenodd" clip-rule="evenodd" d="M62.3848 41.6415C62.3848 39.3872 64.3132 37.5946 66.6762 37.5946C69.0663 37.5946 70.9676 39.4143 70.9676 41.6415C70.9676 43.8687 69.0392 45.6884 66.6762 45.6884C64.3132 45.6884 62.3848 43.8958 62.3848 41.6415Z" fill="black" stroke="black" stroke-width="0.5" stroke-miterlimit="3.8637"/>
<path fill-rule="evenodd" clip-rule="evenodd" d="M68.3057 50.6045C68.3057 48.3502 70.2341 46.5576 72.5971 46.5576C74.9872 46.5576 76.8885 48.3773 76.8885 50.6045C76.8885 52.8588 74.9601 54.6786 72.5971 54.6786C70.2341 54.6514 68.3057 52.8317 68.3057 50.6045Z" fill="black" stroke="black" stroke-width="0.5" stroke-miterlimit="3.8637"/>
<path fill-rule="evenodd" clip-rule="evenodd" d="M55.2687 50.2515C55.2687 47.9972 57.1971 46.2046 59.5601 46.2046C61.9502 46.2046 63.8515 48.0243 63.8515 50.2515C63.8515 52.4787 61.9231 54.2984 59.5601 54.2984C57.1971 54.2984 55.2687 52.4787 55.2687 50.2515Z" fill="black" stroke="black" stroke-width="0.5" stroke-miterlimit="3.8637"/>
<path fill-rule="evenodd" clip-rule="evenodd" d="M81.2341 123.313C80.5008 120.923 78.002 119.592 75.6119 120.326L48.8315 128.528C46.4414 129.262 45.1105 131.76 45.8439 134.15L58.4192 175.272C59.1526 177.662 61.6513 178.993 64.0415 178.259L90.8218 170.057C93.2119 169.323 94.5428 166.825 93.8095 164.435L81.2341 123.313Z" fill="white" stroke="black" stroke-width="1.5" stroke-miterlimit="3.8637"/>
<path fill-rule="evenodd" clip-rule="evenodd" d="M84.0045 155.906C78.4638 157.726 74.8514 155.308 73.086 150.012L73.1675 149.985C74.8514 151.723 77.323 152.837 79.7403 151.968C82.2391 151.071 83.4885 148.355 82.565 145.829C81.4786 142.842 78.3551 141.701 75.6391 140.56C72.1354 139.175 69.2835 137.736 67.165 134.422C67.8712 138.36 66.2144 142.136 64.2588 145.422C62.8465 147.785 61.7057 150.392 62.6835 153.108C63.6069 155.634 66.4045 156.802 68.8761 155.906C71.2662 155.037 72.6243 152.565 72.6786 150.148L72.7601 150.121C74.8786 155.173 73.4391 159.79 68.0884 161.691L68.2242 162.533L84.4391 156.639L84.0045 155.906Z" fill="black" stroke="black" stroke-width="0.1749" stroke-miterlimit="3.8637"/>
<path fill-rule="evenodd" clip-rule="evenodd" d="M76.8613 129.696C76.8613 127.225 78.8712 125.187 81.37 125.187H109.373C111.871 125.187 113.881 127.197 113.881 129.696V172.718C113.881 175.19 111.871 177.227 109.373 177.227H81.37C78.8984 177.227 76.8613 175.217 76.8613 172.718V129.696Z" fill="white" stroke="black" stroke-width="1.5" stroke-miterlimit="3.8637"/>
<path fill-rule="evenodd" clip-rule="evenodd" d="M96.6071 146.183C97.5034 142.788 99.4589 140.072 102.474 140.886C105.489 141.701 106.765 144.472 105.95 147.486C105.135 150.501 97.0416 159.654 95.8466 162.56C94.9231 159.546 86.7206 150.23 86.1774 147.133C85.6342 144.064 87.1552 141.402 90.2243 140.859C93.2935 140.316 95.0046 143.195 95.6021 146.644C96.2268 150.121 95.6836 149.578 96.6071 146.183Z" fill="#C4000C" stroke="#C73326" stroke-width="0.2875" stroke-miterlimit="3.8637"/>
<path fill-rule="evenodd" clip-rule="evenodd" d="M315.141 124.02C314.571 121.602 312.181 120.081 309.736 120.652L282.44 126.953C280.023 127.523 278.502 129.941 279.072 132.358L288.741 174.267C289.312 176.684 291.702 178.205 294.146 177.634L321.442 171.333C323.86 170.763 325.381 168.346 324.81 165.928L315.141 124.02Z" fill="white" stroke="black" stroke-width="1.5" stroke-miterlimit="3.8637"/>
<path fill-rule="evenodd" clip-rule="evenodd" d="M315.304 158.676C309.628 160.007 306.233 157.291 304.929 151.859L305.01 151.832C306.531 153.706 308.894 155.037 311.393 154.358C313.973 153.679 315.44 151.071 314.734 148.491C313.919 145.422 310.904 144.01 308.27 142.624C304.902 140.941 302.186 139.257 300.366 135.78C300.719 139.773 298.736 143.385 296.509 146.481C294.907 148.736 293.521 151.207 294.282 154.005C294.988 156.612 297.677 158.025 300.203 157.346C302.674 156.694 304.25 154.331 304.494 151.941L304.576 151.913C306.26 157.128 304.413 161.61 298.899 163.049L298.981 163.891L315.657 159.437L315.304 158.676Z" fill="black" stroke="black" stroke-width="0.1749" stroke-miterlimit="3.8637"/>
<path fill-rule="evenodd" clip-rule="evenodd" d="M311.475 132.086C311.475 129.588 313.484 127.578 315.983 127.578H343.986C346.485 127.578 348.494 129.588 348.494 132.086V175.109C348.494 177.58 346.485 179.617 343.986 179.617H315.983C313.484 179.617 311.475 177.607 311.475 175.109V132.086Z" fill="white" stroke="black" stroke-width="1.5" stroke-miterlimit="3.8637"/>
<path fill-rule="evenodd" clip-rule="evenodd" d="M329.672 142.706L321.524 154.494L330.08 165.711L338.961 153.842L329.672 142.706Z" fill="#C4000C"/>
<path fill-rule="evenodd" clip-rule="evenodd" d="M347.517 22.276C347.055 19.8315 344.692 18.2562 342.247 18.7179L314.761 24.0686C312.316 24.5303 310.741 26.8933 311.203 29.3377L319.405 71.5724C319.867 74.0169 322.23 75.5922 324.675 75.1305L352.161 69.7798C354.606 69.3181 356.181 66.9551 355.719 64.5107L347.517 22.276Z" fill="white" stroke="black" stroke-width="1.5" stroke-miterlimit="3.8637"/>
<path fill-rule="evenodd" clip-rule="evenodd" d="M333.067 41.2883C333.067 37.7846 334.235 34.6611 337.359 34.6611C340.482 34.6611 342.438 36.9969 342.438 40.1204C342.438 43.2438 338.445 53.9723 338.038 57.0957C336.354 54.434 324.566 47.7253 323.235 44.9006C321.904 42.0759 322.692 39.1154 325.517 37.8117C328.341 36.4809 330.731 38.8167 332.225 42.0216C333.719 45.1994 333.067 44.792 333.067 41.2883Z" fill="#C4000C" stroke="#C73326" stroke-width="0.2875" stroke-miterlimit="3.8637"/>
<path fill-rule="evenodd" clip-rule="evenodd" d="M343.578 25.8611C343.795 23.3895 345.968 21.5698 348.44 21.787L376.334 24.2315C378.805 24.4488 380.652 26.6216 380.435 29.0932L376.687 71.9526C376.47 74.4242 374.297 76.244 371.825 76.0539L343.931 73.6094C341.46 73.3921 339.64 71.2193 339.83 68.7477L343.578 25.8611Z" fill="white" stroke="black" stroke-width="1.5" stroke-miterlimit="3.8637"/>
<path fill-rule="evenodd" clip-rule="evenodd" d="M359.413 46.2586L359.549 48.5944H357.213L356.833 53.0216L359.304 52.8858L359.413 56.3352L357.702 58.8068L362.672 58.8611L361.26 56.471L361.396 53.1303H364.845L365.687 48.5944H361.64L361.885 46.3673L359.413 46.2586Z" fill="black" stroke="black" stroke-width="0.25" stroke-miterlimit="3.8637"/>
<path fill-rule="evenodd" clip-rule="evenodd" d="M356.778 42.5919C356.778 40.3376 358.707 38.545 361.07 38.545C363.46 38.545 365.388 40.3648 365.388 42.5919C365.388 44.8463 363.46 46.6389 361.07 46.6389C358.707 46.666 356.778 44.8463 356.778 42.5919Z" fill="black" stroke="black" stroke-width="0.5" stroke-miterlimit="3.8637"/>
<path fill-rule="evenodd" clip-rule="evenodd" d="M363.025 51.4192C363.025 49.1649 364.954 47.3723 367.317 47.3723C369.707 47.3723 371.608 49.192 371.608 51.4192C371.608 53.6464 369.68 55.4661 367.317 55.4661C364.954 55.4933 363.025 53.6735 363.025 51.4192Z" fill="black" stroke="black" stroke-width="0.5" stroke-miterlimit="3.8637"/>
<path fill-rule="evenodd" clip-rule="evenodd" d="M349.662 51.2019C349.662 48.9476 351.591 47.155 353.954 47.155C356.344 47.155 358.245 48.9748 358.245 51.2019C358.245 53.4563 356.317 55.2489 353.954 55.2489C351.591 55.276 349.662 53.4563 349.662 51.2019Z" fill="black" stroke="black" stroke-width="0.5" stroke-miterlimit="3.8637"/>
<path fill-rule="evenodd" clip-rule="evenodd" d="M136.859 28.1428C136.153 25.8613 137.457 23.4168 139.738 22.7107L186.02 8.55999C188.301 7.85381 190.746 9.15752 191.452 11.439L211.388 76.5973C212.094 78.9059 210.79 81.3232 208.509 82.0294L162.227 96.18C159.918 96.8862 157.501 95.5825 156.795 93.301L136.859 28.1428Z" fill="white" stroke="black" stroke-width="1.5" stroke-miterlimit="3.8637"/>
<path fill-rule="evenodd" clip-rule="evenodd" d="M171.109 34.9057L164.346 56.0366L181.756 67.1724L188.03 46.3946L171.109 34.9057Z" fill="#C4000C"/>
<path fill-rule="evenodd" clip-rule="evenodd" d="M186.291 20.2389C186.427 17.8488 188.464 16.0019 190.854 16.1377L239.2 18.6636C241.59 18.7994 243.437 20.8365 243.301 23.2266L239.743 91.291C239.608 93.6811 237.57 95.5281 235.18 95.3923L186.834 92.8663C184.444 92.7305 182.597 90.6935 182.733 88.3033L186.291 20.2389Z" fill="white" stroke="black" stroke-width="1.5" stroke-miterlimit="3.8637"/>
<path fill-rule="evenodd" clip-rule="evenodd" d="M212.501 50.7132L212.691 54.2984H209.106L208.536 61.0886L212.311 60.8984L212.501 66.1948L209.867 69.9701H217.472L215.326 66.3849L215.516 61.2787H220.812L222.116 54.2984H215.896L216.277 50.9033L212.501 50.7132Z" fill="black" stroke="black" stroke-width="0.25" stroke-miterlimit="3.8637"/>
<path fill-rule="evenodd" clip-rule="evenodd" d="M208.454 45.1181C208.454 41.6687 211.415 38.8983 215.054 38.8983C218.694 38.8983 221.654 41.6958 221.654 45.1181C221.654 48.5675 218.694 51.3378 215.054 51.3378C211.415 51.3378 208.454 48.5675 208.454 45.1181Z" fill="black" stroke="black" stroke-width="0.5" stroke-miterlimit="3.8637"/>
<path fill-rule="evenodd" clip-rule="evenodd" d="M217.499 58.8071C217.499 55.3577 220.459 52.5873 224.099 52.5873C227.738 52.5873 230.699 55.3848 230.699 58.8071C230.699 62.2565 227.738 65.0269 224.099 65.0269C220.459 65.054 217.499 62.2565 217.499 58.8071Z" fill="black" stroke="black" stroke-width="0.5" stroke-miterlimit="3.8637"/>
<path fill-rule="evenodd" clip-rule="evenodd" d="M197.509 58.3181C197.509 54.8687 200.469 52.0984 204.109 52.0984C207.748 52.0984 210.709 54.8959 210.709 58.3181C210.709 61.7675 207.748 64.5379 204.109 64.5379C200.469 64.5379 197.509 61.7675 197.509 58.3181Z" fill="black" stroke="black" stroke-width="0.5" stroke-miterlimit="3.8637"/>
<rect width="392" height="4" fill="black"/>
</svg>
