<svg width="394" height="431" viewBox="0 0 382 431" fill="none" xmlns="http://www.w3.org/2000/svg">
<path fill-rule="evenodd" clip-rule="evenodd" d="M381.689 1.27219V111.248C381.689 196.661 297.882 254.614 191.498 254.614C85.113 254.614 0.303481 194.657 0.303481 109.244L0.222168 1.27219H381.689Z" fill="#209740"/>
<g clip-path="url(#clip0_1_432)">
<path fill-rule="evenodd" clip-rule="evenodd" d="M293.309 375C251.361 375 215.91 353.496 215.91 328.03V248.184V247.834V243.657L211.758 243.954C205.046 244.439 198.252 244.681 191.539 244.681C87.5045 244.681 9.08082 185.801 9.08082 107.733L8.99994 8H373V109.727C373 144.22 358.334 175.21 330.567 199.355L324.528 204.61L332.4 206.092C356.717 210.7 368.848 221.291 370.654 239.48L370.708 240.073V327.976C370.708 353.469 335.257 375 293.309 375Z" fill="#E9EBEC"/>
</g>
<path fill-rule="evenodd" clip-rule="evenodd" d="M289.817 0.666656V66.9113C289.817 107.055 243.252 147.334 188.674 147.334C134.096 147.334 91.6461 107.055 91.6461 66.9113L91.592 0.666656H289.817Z" fill="#EFEFEF"/>
<rect x="91.9999" y="1" width="198" height="7" fill="#C4000C"/>
<path d="M289.871 0.666656L289.817 66.9113C289.817 107.055 243.252 147.334 188.674 147.334C134.096 147.334 91.6461 107.055 91.6461 66.9113L91.592 0.666656" stroke="black" stroke-width="1.6507" stroke-miterlimit="3.8637"/>
<g clip-path="url(#clip1_1_432)">
<path d="M266.446 221.692L258.898 224.398L260.195 228.059L267.743 225.353L266.446 221.692Z" fill="black"/>
<path d="M252.877 226.553L245.328 229.259L246.625 232.921L254.174 230.214L252.877 226.553Z" fill="black"/>
<path d="M239.385 231.398L231.836 234.104L233.133 237.766L240.682 235.059L239.385 231.398Z" fill="black"/>
<path d="M307.151 207.096L299.603 209.803L300.9 213.464L308.448 210.757L307.151 207.096Z" fill="black"/>
<path d="M293.582 211.957L286.034 214.664L287.331 218.325L294.879 215.618L293.582 211.957Z" fill="black"/>
<path d="M280.09 216.802L272.542 219.509L273.839 223.17L281.387 220.463L280.09 216.802Z" fill="black"/>
</g>
<defs>
<clipPath id="clip0_1_432">
<rect width="364" height="367" fill="white" transform="translate(8.99994 8)"/>
</clipPath>
<clipPath id="clip1_1_432">
<rect width="93.0958" height="58.34" fill="white" transform="translate(220.579 197.75) rotate(-5.97064)"/>
</clipPath>
</defs>
</svg>
